<svg width="418" height="421" xmlns="http://www.w3.org/2000/svg">
 <defs>
  <radialGradient gradientUnits="userSpaceOnUse" gradientTransform="matrix(1 0 0 -1 0 668.9737)" r="203.935" cy="460.9118" cx="206.49" id="SVGID_1_">
   <stop stop-color="#FFFFFF" stop-opacity="0.1" offset="0"/>
   <stop stop-color="#FFFFFF" stop-opacity="0" offset="1"/>
  </radialGradient>
 </defs>
 <g>
  <title>background</title>
  <rect fill="none" id="canvas_background" height="423" width="420" y="-1" x="-1"/>
 </g>
 <g>
  <title>Layer 1</title>
  <g id="svg_1">
   <g id="svg_2" opacity="0.54">
    <path id="svg_3" d="m94.03,570.3l27.64,0c9.38,0 17.57,1.94 24.57,5.82c6.99,3.88 12.37,9.28 16.12,16.19s5.63,14.84 5.63,23.8s-1.88,16.89 -5.63,23.8s-9.13,12.3 -16.12,16.18c-7,3.88 -15.18,5.82 -24.57,5.82l-27.65,0l0.01,-91.61l0,0zm27.64,81.25c10.83,0 19.43,-3.11 25.78,-9.34c6.35,-6.23 9.53,-14.93 9.53,-26.1s-3.18,-19.87 -9.53,-26.1c-6.36,-6.23 -14.95,-9.34 -25.78,-9.34l-16.89,0l0,70.88l16.89,0z"/>
    <path id="svg_4" d="m184.74,661.14c-3.75,-1.88 -6.65,-4.46 -8.7,-7.74c-2.05,-3.28 -3.07,-7.02 -3.07,-11.2c0,-6.91 2.6,-12.3 7.8,-16.18s11.77,-5.82 19.7,-5.82c3.92,0 7.57,0.43 10.94,1.28c3.37,0.85 5.95,1.84 7.74,2.94l0,-3.97c0,-4.86 -1.71,-8.76 -5.12,-11.71c-3.41,-2.94 -7.72,-4.41 -12.92,-4.41c-3.67,0 -7.04,0.79 -10.11,2.37s-5.5,3.77 -7.29,6.59l-8.19,-6.14c2.56,-3.92 6.08,-6.99 10.56,-9.21c4.48,-2.22 9.45,-3.33 14.91,-3.33c8.87,0 15.84,2.32 20.92,6.97c5.07,4.65 7.61,10.98 7.61,19l0,41.33l-10.36,0l0,-9.34l-0.51,0c-1.88,3.16 -4.69,5.84 -8.44,8.06s-7.98,3.33 -12.67,3.33c-4.78,0 -9.05,-0.94 -12.8,-2.82zm24.05,-9.59c3.15,-1.88 5.67,-4.39 7.55,-7.55c1.88,-3.15 2.81,-6.61 2.81,-10.36c-2.05,-1.36 -4.56,-2.47 -7.55,-3.33c-2.99,-0.85 -6.14,-1.28 -9.47,-1.28c-5.97,0 -10.47,1.24 -13.5,3.71c-3.03,2.47 -4.54,5.67 -4.54,9.6c0,3.58 1.36,6.48 4.09,8.7c2.73,2.22 6.18,3.33 10.36,3.33c3.68,-0.01 7.1,-0.95 10.25,-2.82z"/>
    <path id="svg_5" d="m241,597.68l10.36,0l0,10.36l0.51,0c1.54,-3.84 4.14,-6.82 7.8,-8.96c3.67,-2.13 7.68,-3.2 12.03,-3.2c1.88,0 3.45,0.13 4.73,0.38l0,11.13c-1.45,-0.34 -3.41,-0.51 -5.89,-0.51c-5.55,0 -10.04,1.84 -13.5,5.5c-3.45,3.67 -5.18,8.44 -5.18,14.33l0,36.21l-10.88,0l0,-65.24l0.02,0zm67.53,64.97c-2.26,-0.87 -4.16,-2.04 -5.69,-3.52c-1.71,-1.65 -2.99,-3.56 -3.84,-5.73c-0.85,-2.17 -1.28,-4.82 -1.28,-7.95l0,-38.95l-11.39,0l0,-9.85l11.39,0l0,-18.42l10.88,0l0,18.42l15.87,0l0,9.85l-15.87,0l0,36.35c0,3.66 0.68,6.37 2.05,8.11c1.62,1.92 3.97,2.88 7.04,2.88c2.47,0 4.86,-0.72 7.16,-2.17l0,10.62c-1.28,0.6 -2.58,1.02 -3.9,1.28s-3.01,0.38 -5.05,0.38c-2.66,0.01 -5.11,-0.43 -7.37,-1.3z"/>
   </g>
   <g id="svg_6">
    <path id="svg_7" d="m86.75,329.84l-69.77,-69.77c-8.27,-8.5 -13.42,-20.49 -13.42,-32.2c0,-5.42 3.07,-13.9 5.37,-18.78l64.4,-134.17l13.42,254.92z" fill="#01579B"/>
    <path id="svg_8" d="m325.58,88.33l-69.77,-69.77c-6.1,-6.12 -18.78,-13.42 -29.52,-13.42c-9.22,0 -18.28,1.84 -24.15,5.37l-128.82,64.4l252.26,13.42z" fill="#40C4FF"/>
    <polygon id="svg_9" points="169.94000244140625,413.0199890136719 338.989990234375,413.0199890136719 338.989990234375,340.57000732421875 212.8800048828125,300.32000732421875 97.48999786376953,340.57000732421875 " fill="#40C4FF"/>
    <path id="svg_10" d="m73.34,292.27c0,21.52 2.7,26.81 13.42,37.57l10.73,10.73l241.51,0l-118.07,-134.17l-147.59,-131.49l0,217.36z" fill="#29B6F6"/>
    <path id="svg_11" d="m288.01,74.91l-214.67,0l265.66,265.66l72.45,0l0,-166.37l-85.87,-85.87c-12.06,-12.11 -22.78,-13.42 -37.57,-13.42z" fill="#01579B"/>
    <path id="svg_12" d="m89.44,332.52c-10.73,-10.78 -13.42,-21.39 -13.42,-40.25l0,-214.68l-2.68,-2.68l0,217.36c0,18.86 0,24.09 16.1,40.25l8.05,8.05l0,0l-8.05,-8.05z" fill="#FFFFFF" opacity="0.2"/>
    <polygon id="svg_13" points="408.7699890136719,171.50999450683594 408.7699890136719,337.8900146484375 336.29998779296875,337.8900146484375 338.989990234375,340.57000732421875 411.45001220703125,340.57000732421875 411.45001220703125,174.1999969482422 " fill="#263238" opacity="0.2"/>
    <path id="svg_14" d="m325.58,88.33c-13.3,-13.3 -24.21,-13.42 -40.25,-13.42l-211.99,0l2.68,2.68l209.31,0c8.01,0 28.21,-1.34 40.25,10.74l0,0z" fill="#FFFFFF" opacity="0.2"/>
    <path id="svg_15" d="m408.77,171.51l-83.19,-83.19l-69.77,-69.77c-6.1,-6.12 -18.78,-13.42 -29.52,-13.42c-9.22,0 -18.28,1.84 -24.15,5.37l-128.82,64.4l-64.4,134.17c-2.3,4.88 -5.37,13.36 -5.37,18.78c0,11.72 5.15,23.7 13.42,32.2l64.3,63.83c1.54,1.88 3.34,3.8 5.47,5.94l2.68,2.68l8.05,8.05l69.77,69.77l2.68,2.68l166.37,0l2.68,0l0,-72.45l72.45,0l0,-0.19l0,-166.16l-2.65,-2.69z" fill="url(#SVGID_1_)" opacity="0.2"/>
   </g>
  </g>
 </g>
</svg>